<svg width="22" height="22" viewBox="0 0 22 22" fill="none" xmlns="http://www.w3.org/2000/svg">
<path d="M3 15.36C2.86 14.82 3.18 14.25 3.73 14.11L6 13.5L4.33 11.86C3.93 11.46 3.93 10.81 4.33 10.4C4.73 10 5.4 10 5.79 10.4L7.45 12.05L8.04 9.8C8.18 9.24 8.75 8.92 9.29 9.07C9.85 9.21 10.17 9.78 10 10.33L9.42 12.58L11.67 12C12.22 11.83 12.79 12.15 12.93 12.71C13.08 13.25 12.76 13.82 12.2 13.96L9.95 14.55L11.6 16.21C12 16.6 12 17.27 11.6 17.67C11.2 18.07 10.54 18.07 10.15 17.67L8.5 16L7.89 18.27C7.75 18.83 7.18 19.14 6.64 19C6.08 18.86 5.77 18.29 5.91 17.74L6.5 15.5L4.26 16.09C3.71 16.23 3.14 15.92 3 15.36ZM0 9C0 7.67392 0.526784 6.40215 1.46447 5.46447C2.40215 4.52678 3.67392 4 5 4C6 1.65 8.3 0 11 0C14.43 0 17.24 2.66 17.5 6.03L18 6C19.0609 6 20.0783 6.42143 20.8284 7.17157C21.5786 7.92172 22 8.93913 22 10C22 11.0609 21.5786 12.0783 20.8284 12.8284C20.0783 13.5786 19.0609 14 18 14C17.7348 14 17.4804 13.8946 17.2929 13.7071C17.1054 13.5196 17 13.2652 17 13C17 12.7348 17.1054 12.4804 17.2929 12.2929C17.4804 12.1054 17.7348 12 18 12C18.5304 12 19.0391 11.7893 19.4142 11.4142C19.7893 11.0391 20 10.5304 20 10C20 9.46957 19.7893 8.96086 19.4142 8.58579C19.0391 8.21071 18.5304 8 18 8H16V7C16 5.67392 15.4732 4.40215 14.5355 3.46447C13.5979 2.52678 12.3261 2 11 2C8.5 2 6.45 3.82 6.06 6.19C5.73 6.07 5.37 6 5 6C4.20435 6 3.44129 6.31607 2.87868 6.87868C2.31607 7.44129 2 8.20435 2 9C2 9.85 2.35 10.61 2.91 11.16C3.27 11.55 3.26 12.16 2.88 12.54C2.5 12.93 1.85 12.93 1.47 12.54C0.56 11.63 0 10.38 0 9ZM13.03 19.43C13.13 19.82 13.5 20.04 13.91 19.94L15.5 19.5L15.06 21.09C14.96 21.5 15.18 21.87 15.57 21.97C15.95 22.08 16.35 21.85 16.45 21.46L16.86 19.89L18.03 21.05C18.3 21.33 18.77 21.33 19.05 21.05C19.33 20.77 19.33 20.3 19.05 20.03L17.89 18.86L19.46 18.45C19.85 18.35 20.08 17.95 19.97 17.57C19.87 17.18 19.5 16.96 19.09 17.06L17.5 17.5L17.94 15.91C18.04 15.5 17.82 15.13 17.43 15.03C17.05 14.92 16.65 15.15 16.55 15.54L16.14 17.11L14.97 15.95C14.7 15.67 14.23 15.67 13.95 15.95C13.67 16.24 13.67 16.7 13.95 16.97L15.11 18.14L13.54 18.55C13.15 18.65 12.92 19.05 13.03 19.43Z" fill="#96E348"/>
</svg>
