<svg width="19" height="20" viewBox="0 0 19 20" fill="none" xmlns="http://www.w3.org/2000/svg">
<path d="M1 8C0.734784 8 0.48043 7.89464 0.292893 7.70711C0.105357 7.51957 0 7.26522 0 7C0 6.73478 0.105357 6.48043 0.292893 6.29289C0.48043 6.10536 0.734784 6 1 6H9C9.53043 6 10.0391 5.78929 10.4142 5.41421C10.7893 5.03914 11 4.53043 11 4C11 3.46957 10.7893 2.96086 10.4142 2.58579C10.0391 2.21071 9.53043 2 9 2C8.45 2 7.95 2.22 7.59 2.59C7.2 3 6.56 3 6.17 2.59C5.78 2.2 5.78 1.56 6.17 1.17C6.9 0.45 7.9 0 9 0C10.0609 0 11.0783 0.421427 11.8284 1.17157C12.5786 1.92172 13 2.93913 13 4C13 5.06087 12.5786 6.07828 11.8284 6.82843C11.0783 7.57857 10.0609 8 9 8H1ZM16 10C16.2652 10 16.5196 9.89464 16.7071 9.70711C16.8946 9.51957 17 9.26522 17 9C17 8.73478 16.8946 8.48043 16.7071 8.29289C16.5196 8.10536 16.2652 8 16 8C15.72 8 15.47 8.11 15.29 8.29C14.9 8.68 14.27 8.68 13.88 8.29C13.5 7.9 13.5 7.27 13.88 6.88C14.42 6.34 15.17 6 16 6C16.7956 6 17.5587 6.31607 18.1213 6.87868C18.6839 7.44129 19 8.20435 19 9C19 9.79565 18.6839 10.5587 18.1213 11.1213C17.5587 11.6839 16.7956 12 16 12H2C1.73478 12 1.48043 11.8946 1.29289 11.7071C1.10536 11.5196 1 11.2652 1 11C1 10.7348 1.10536 10.4804 1.29289 10.2929C1.48043 10.1054 1.73478 10 2 10H16ZM15 16H1C0.734784 16 0.48043 15.8946 0.292893 15.7071C0.105357 15.5196 0 15.2652 0 15C0 14.7348 0.105357 14.4804 0.292893 14.2929C0.48043 14.1054 0.734784 14 1 14H15C15.7956 14 16.5587 14.3161 17.1213 14.8787C17.6839 15.4413 18 16.2044 18 17C18 17.7956 17.6839 18.5587 17.1213 19.1213C16.5587 19.6839 15.7956 20 15 20C14.17 20 13.42 19.66 12.88 19.12C12.5 18.73 12.5 18.1 12.88 17.71C13.27 17.32 13.9 17.32 14.29 17.71C14.47 17.89 14.72 18 15 18C15.2652 18 15.5196 17.8946 15.7071 17.7071C15.8946 17.5196 16 17.2652 16 17C16 16.7348 15.8946 16.4804 15.7071 16.2929C15.5196 16.1054 15.2652 16 15 16Z" fill="#96E348"/>
</svg>
