<svg width="187" height="31" viewBox="0 0 187 31" fill="none" xmlns="http://www.w3.org/2000/svg">
<path d="M9.60763 23.512C7.81563 23.512 6.21563 23.16 4.80763 22.456C3.39963 21.7307 2.29029 20.6533 1.47963 19.224C0.668958 17.7947 0.263625 16.0347 0.263625 13.944C0.263625 12.024 0.583625 10.264 1.22363 8.664C1.86363 7.04267 2.75963 5.64533 3.91163 4.472C5.08496 3.27733 6.46096 2.36 8.03963 1.72C9.63963 1.05867 11.3783 0.727999 13.2556 0.727999C15.0903 0.727999 16.4876 0.930665 17.4476 1.336C18.4076 1.74133 18.8876 2.488 18.8876 3.576C18.8876 4.152 18.7703 4.65333 18.5356 5.08C18.301 5.50667 18.045 5.72 17.7676 5.72C17.5756 5.72 17.2983 5.624 16.9356 5.432C16.5943 5.21867 16.2743 5.02667 15.9756 4.856C15.4636 4.536 14.8983 4.216 14.2796 3.896C13.6823 3.55467 12.9463 3.384 12.0716 3.384C10.7916 3.384 9.65029 3.8 8.64763 4.632C7.66629 5.44267 6.88763 6.59467 6.31163 8.088C5.75696 9.58133 5.47963 11.3413 5.47963 13.368C5.47963 15.0533 5.69296 16.4507 6.11963 17.56C6.54629 18.6693 7.13296 19.4907 7.87963 20.024C8.62629 20.5573 9.46896 20.824 10.4076 20.824C11.2183 20.824 11.9436 20.6533 12.5836 20.312C13.245 19.9707 13.821 19.576 14.3116 19.128C14.8236 18.68 15.2823 18.296 15.6876 17.976C16.093 17.6347 16.477 17.464 16.8396 17.464C17.117 17.464 17.341 17.5493 17.5116 17.72C17.6823 17.8907 17.7676 18.1573 17.7676 18.52C17.7676 19.416 17.3943 20.248 16.6476 21.016C15.9223 21.784 14.941 22.392 13.7036 22.84C12.4663 23.288 11.101 23.512 9.60763 23.512ZM22.8379 23.512C21.6432 23.512 20.7365 23.0213 20.1179 22.04C19.4992 21.0587 19.1899 19.704 19.1899 17.976C19.1899 16.4187 19.4352 14.9893 19.9259 13.688C20.4165 12.3867 21.0779 11.2667 21.9099 10.328C22.7419 9.368 23.6912 8.632 24.7579 8.12C25.8459 7.58667 26.9765 7.32 28.1499 7.32C29.0672 7.32 29.8992 7.448 30.6459 7.704C31.4139 7.93867 32.0645 8.184 32.5979 8.44L31.6699 12.408C31.1152 12.024 30.4859 11.64 29.7819 11.256C29.0992 10.872 28.4379 10.5627 27.7979 10.328C27.1792 10.072 26.6672 9.944 26.2619 9.944C25.7712 9.944 25.3125 10.2747 24.8859 10.936C24.4805 11.576 24.1499 12.4187 23.8939 13.464C23.6592 14.488 23.5419 15.5867 23.5419 16.76C23.5419 17.784 23.6059 18.616 23.7339 19.256C23.8832 19.896 24.1179 20.216 24.4379 20.216C24.6725 20.216 25.0885 19.928 25.6859 19.352C26.2832 18.7547 27.0192 17.7413 27.8939 16.312C28.7899 14.8827 29.7605 12.9093 30.8059 10.392L31.9259 13.368C30.7739 15.928 29.6752 17.9547 28.6299 19.448C27.5845 20.92 26.5819 21.9653 25.6219 22.584C24.6832 23.2027 23.7552 23.512 22.8379 23.512ZM30.8379 23.32C30.2405 23.32 29.8459 23.1493 29.6539 22.808C29.4619 22.4667 29.3659 22.0613 29.3659 21.592C29.3659 21.2293 29.4085 20.7707 29.4939 20.216C29.6005 19.64 29.7285 19.0213 29.8779 18.36C30.0272 17.6987 30.1872 17.0693 30.3579 16.472L31.0619 14.072L30.0379 13.24L30.8059 8.408C31.4885 8.30133 32.1285 8.16267 32.7259 7.992C33.3232 7.82133 33.8352 7.672 34.2619 7.544C34.7099 7.416 35.0405 7.352 35.2539 7.352C35.5952 7.352 35.7659 7.53333 35.7659 7.896C35.7659 8.06667 35.6272 8.536 35.3499 9.304C35.0939 10.072 34.8165 11.0427 34.5179 12.216C34.2192 13.3893 33.9952 14.68 33.8459 16.088L33.1419 23.32H30.8379ZM57.7399 23.32C57.4199 23.32 57.1852 23.1813 57.0359 22.904C56.8865 22.6267 56.7905 22.3173 56.7479 21.976C56.7052 21.6347 56.6839 21.3787 56.6839 21.208C56.6839 20.9093 56.6945 20.5573 56.7159 20.152C56.7585 19.7253 56.8119 19.288 56.8759 18.84C56.9399 18.3707 57.0039 17.944 57.0679 17.56L57.6119 14.232C57.6759 13.8053 57.7505 13.3787 57.8359 12.952C57.9212 12.5253 57.9639 12.1413 57.9639 11.8C57.9639 11.544 57.8999 11.352 57.7719 11.224C57.6652 11.096 57.5265 11.032 57.3559 11.032C57.0785 11.032 56.6519 11.288 56.0759 11.8C55.4999 12.2907 54.8812 13.016 54.2199 13.976C53.5799 14.936 52.9932 16.088 52.4599 17.432C51.9479 18.776 51.6279 20.28 51.4999 21.944L50.3159 17.4C51.1905 14.9253 52.1825 12.952 53.2919 11.48C54.4012 10.008 55.5105 8.952 56.6199 8.312C57.7292 7.65067 58.6892 7.32 59.4999 7.32C60.2252 7.32 60.8012 7.45867 61.2279 7.736C61.6759 7.992 61.9959 8.344 62.1879 8.792C62.3799 9.24 62.4759 9.72 62.4759 10.232C62.4759 10.7653 62.4332 11.2773 62.3479 11.768C62.2839 12.2373 62.2092 12.7493 62.1239 13.304L60.5879 23.32H57.7399ZM38.2199 23.448C37.9425 23.448 37.7185 23.3947 37.5479 23.288C37.3985 23.2027 37.3132 22.9573 37.2919 22.552C37.2705 22.1467 37.3132 21.496 37.4199 20.6L38.9239 7.288H41.7719C42.2839 7.288 42.6572 7.52267 42.8919 7.992C43.1265 8.46133 43.2439 8.99467 43.2439 9.592C43.2439 9.86933 43.1372 10.3067 42.9239 10.904C42.7105 11.48 42.4759 12.0987 42.2199 12.76C41.9639 13.4 41.7505 13.9653 41.5799 14.456L40.7479 17.08L42.3159 16.888L41.7719 22.008C41.7505 22.2853 41.5799 22.52 41.2599 22.712C40.9612 22.8827 40.5985 23.0213 40.1719 23.128C39.7452 23.256 39.3399 23.3413 38.9559 23.384C38.5932 23.4267 38.3479 23.448 38.2199 23.448ZM47.8199 23.352C47.3932 23.352 47.1372 23.2347 47.0519 23C46.9879 22.7867 46.9559 22.5413 46.9559 22.264C46.9559 21.88 46.9879 21.3467 47.0519 20.664C47.1159 19.96 47.2652 18.9253 47.4999 17.56L48.0439 14.232C48.1079 13.8053 48.1825 13.3787 48.2679 12.952C48.3532 12.504 48.3959 12.1093 48.3959 11.768C48.3959 11.512 48.3425 11.3307 48.2359 11.224C48.1292 11.096 47.9905 11.032 47.8199 11.032C47.5212 11.032 47.0732 11.2987 46.4759 11.832C45.8999 12.344 45.2812 13.08 44.6199 14.04C43.9585 15 43.3612 16.1627 42.8279 17.528C42.2945 18.872 41.9425 20.3653 41.7719 22.008L40.6839 17.176C41.3239 15.32 42.0492 13.7627 42.8599 12.504C43.6705 11.2453 44.5025 10.2427 45.3559 9.496C46.2092 8.728 47.0305 8.17333 47.8199 7.832C48.6092 7.49067 49.3025 7.32 49.8999 7.32C50.6465 7.32 51.2119 7.448 51.5959 7.704C51.9799 7.96 52.2359 8.29067 52.3639 8.696C52.4919 9.10133 52.5559 9.51733 52.5559 9.944C52.5559 10.4347 52.4492 11.0213 52.2359 11.704C52.0225 12.3653 51.7452 13.1547 51.4039 14.072C51.0839 14.968 50.7425 16.024 50.3799 17.24L51.9479 16.76L51.4999 21.944C51.4785 22.2 51.3079 22.424 50.9879 22.616C50.6892 22.7867 50.3265 22.9253 49.8999 23.032C49.4732 23.16 49.0572 23.2453 48.6519 23.288C48.2679 23.3307 47.9905 23.352 47.8199 23.352ZM71.4754 23.512C70.7287 23.512 69.9394 23.384 69.1074 23.128C68.2967 22.8933 67.5394 22.616 66.8354 22.296L68.2114 18.488C68.638 18.8933 69.1607 19.2773 69.7794 19.64C70.398 20.0027 71.0167 20.3013 71.6354 20.536C72.254 20.7707 72.7767 20.888 73.2034 20.888C73.7794 20.888 74.302 20.6107 74.7714 20.056C75.262 19.5013 75.646 18.712 75.9234 17.688C76.222 16.664 76.3714 15.4587 76.3714 14.072C76.3714 13.048 76.3074 12.2373 76.1794 11.64C76.0727 11.0213 75.8594 10.712 75.5394 10.712C75.3474 10.712 74.9314 10.9893 74.2914 11.544C73.6514 12.0987 72.862 13.0907 71.9234 14.52C71.006 15.928 70.0034 17.9013 68.9154 20.44L67.9234 17.688C69.1394 14.9787 70.27 12.8773 71.3154 11.384C72.3607 9.89067 73.3527 8.84533 74.2914 8.248C75.23 7.62933 76.1367 7.32 77.0114 7.32C78.334 7.32 79.2727 7.82133 79.8274 8.824C80.382 9.82667 80.6594 11.1707 80.6594 12.856C80.6594 14.9253 80.254 16.76 79.4434 18.36C78.654 19.96 77.566 21.2187 76.1794 22.136C74.814 23.0533 73.246 23.512 71.4754 23.512ZM65.9074 30.008C65.566 30.008 65.2887 29.8587 65.0754 29.56C64.862 29.2827 64.702 28.9413 64.5954 28.536C64.51 28.152 64.4674 27.8 64.4674 27.48C64.4674 27.0533 64.4887 26.5307 64.5314 25.912C64.5954 25.3147 64.67 24.5893 64.7554 23.736L66.6114 7.288H69.0754C69.4167 7.288 69.7047 7.416 69.9394 7.672C70.1954 7.928 70.3874 8.23733 70.5154 8.6C70.6434 8.94133 70.7074 9.272 70.7074 9.592C70.7074 9.99733 70.558 10.6053 70.2594 11.416C69.9607 12.2267 69.598 13.24 69.1714 14.456L68.3074 16.888H69.6194L69.1394 21.208L68.8834 21.624L68.6914 30.008H65.9074ZM83.9819 23.512C83.5979 23.512 83.2992 23.2453 83.0859 22.712C82.8725 22.1787 82.7659 21.6027 82.7659 20.984C82.7659 20.3867 82.7872 19.8533 82.8299 19.384C82.8725 18.8933 82.9365 18.2853 83.0219 17.56L84.1739 7.288H87.0859C87.5979 7.288 87.9392 7.52267 88.1099 7.992C88.3019 8.46133 88.3979 8.99467 88.3979 9.592C88.3979 9.89067 88.3765 10.2107 88.3339 10.552C88.2912 10.872 88.2272 11.3733 88.1419 12.056L87.5339 17.272C87.4272 18.3387 87.3205 19.2453 87.2139 19.992C87.1072 20.7387 87.0112 21.3893 86.9259 21.944C86.8619 22.4987 86.7979 23.0213 86.7339 23.512H83.9819ZM86.7979 5.976C86.1152 5.976 85.5179 5.74133 85.0059 5.272C84.4939 4.78133 84.2379 4.152 84.2379 3.384C84.2379 2.488 84.5259 1.784 85.1019 1.272C85.6992 0.76 86.3925 0.504 87.1819 0.504C87.8859 0.504 88.4832 0.717333 88.9739 1.144C89.4645 1.57067 89.7099 2.2 89.7099 3.032C89.7099 3.88533 89.4219 4.58933 88.8459 5.144C88.2699 5.69867 87.5872 5.976 86.7979 5.976ZM101.766 23.32C101.446 23.32 101.211 23.1813 101.062 22.904C100.912 22.6267 100.806 22.3173 100.742 21.976C100.699 21.6347 100.678 21.3787 100.678 21.208C100.678 20.9093 100.699 20.5573 100.742 20.152C100.784 19.7253 100.827 19.288 100.87 18.84C100.934 18.3707 100.998 17.944 101.062 17.56L101.606 14.232C101.67 13.8053 101.744 13.3787 101.83 12.952C101.915 12.5253 101.958 12.1413 101.958 11.8C101.958 11.544 101.904 11.352 101.798 11.224C101.691 11.096 101.552 11.032 101.382 11.032C101.104 11.032 100.667 11.2987 100.07 11.832C99.4936 12.344 98.875 13.0907 98.2136 14.072C97.5736 15.032 96.987 16.184 96.4536 17.528C95.9203 18.872 95.5683 20.376 95.3976 22.04L94.2776 17.176C94.9176 15.32 95.643 13.7627 96.4536 12.504C97.2643 11.2453 98.0963 10.2427 98.9496 9.496C99.803 8.728 100.624 8.17333 101.414 7.832C102.203 7.49067 102.907 7.32 103.526 7.32C104.251 7.32 104.827 7.45867 105.254 7.736C105.702 7.992 106.022 8.344 106.214 8.792C106.406 9.21867 106.502 9.67733 106.502 10.168C106.502 10.7227 106.459 11.2453 106.374 11.736C106.31 12.2267 106.235 12.7493 106.15 13.304L104.614 23.32H101.766ZM91.8136 23.448C91.5363 23.448 91.3123 23.3947 91.1416 23.288C90.9923 23.2027 90.907 22.9573 90.8856 22.552C90.8643 22.1467 90.907 21.496 91.0136 20.6L92.5176 7.288H95.3656C95.8563 7.288 96.219 7.52267 96.4536 7.992C96.7096 8.46133 96.8376 8.99467 96.8376 9.592C96.8376 9.86933 96.731 10.3067 96.5176 10.904C96.3043 11.48 96.0696 12.0987 95.8136 12.76C95.5576 13.4 95.3443 13.9653 95.1736 14.456L94.3416 17.08L95.9096 16.888L95.3976 22.04C95.3763 22.296 95.2056 22.52 94.8856 22.712C94.5656 22.904 94.1816 23.0533 93.7336 23.16C93.307 23.2667 92.9123 23.3413 92.5496 23.384C92.187 23.4267 91.9416 23.448 91.8136 23.448ZM114.323 30.072C113.278 30.072 112.307 29.912 111.411 29.592C110.515 29.272 109.801 28.7707 109.267 28.088C108.734 27.4053 108.467 26.488 108.467 25.336C108.467 24.76 108.606 24.472 108.883 24.472C109.033 24.472 109.214 24.5253 109.427 24.632C109.662 24.76 109.907 24.8987 110.163 25.048C110.569 25.2827 111.102 25.56 111.763 25.88C112.425 26.2213 113.107 26.52 113.811 26.776C114.537 27.032 115.177 27.16 115.731 27.16C116.009 27.16 116.265 27.1067 116.499 27C116.734 26.8933 116.958 26.6587 117.171 26.296C117.406 25.9333 117.641 25.3787 117.875 24.632C118.11 23.9067 118.366 22.9147 118.643 21.656L120.467 12.984L119.891 12.216L119.923 8.12C121.289 7.94933 122.323 7.77867 123.027 7.608C123.731 7.43733 124.211 7.352 124.467 7.352C124.894 7.352 125.107 7.544 125.107 7.928C125.107 8.07733 124.969 8.52533 124.691 9.272C124.435 10.0187 124.158 10.9893 123.859 12.184C123.561 13.3787 123.379 14.744 123.315 16.28L123.091 22.04C123.027 23.5333 122.718 24.792 122.163 25.816C121.609 26.84 120.894 27.6613 120.019 28.28C119.166 28.92 118.238 29.3787 117.235 29.656C116.233 29.9333 115.262 30.072 114.323 30.072ZM112.275 23.448C111.081 23.448 110.174 22.9573 109.555 21.976C108.937 20.9733 108.627 19.6187 108.627 17.912C108.627 16.376 108.873 14.968 109.363 13.688C109.854 12.3867 110.515 11.2667 111.347 10.328C112.179 9.368 113.129 8.632 114.195 8.12C115.262 7.58667 116.382 7.32 117.555 7.32C118.473 7.32 119.305 7.448 120.051 7.704C120.819 7.93867 121.47 8.184 122.003 8.44L121.075 12.408C120.499 12.024 119.87 11.64 119.187 11.256C118.505 10.872 117.843 10.5627 117.203 10.328C116.585 10.072 116.073 9.944 115.667 9.944C115.198 9.944 114.75 10.2747 114.323 10.936C113.918 11.576 113.598 12.408 113.363 13.432C113.129 14.456 113.011 15.5333 113.011 16.664C113.011 17.7093 113.097 18.5307 113.267 19.128C113.459 19.7253 113.715 20.024 114.035 20.024C114.291 20.024 114.718 19.7467 115.315 19.192C115.913 18.616 116.649 17.6347 117.523 16.248C118.398 14.8613 119.358 12.9093 120.403 10.392L121.363 13.688C120.211 16.248 119.113 18.2427 118.067 19.672C117.043 21.08 116.051 22.0613 115.091 22.616C114.131 23.1707 113.193 23.448 112.275 23.448ZM133.038 23.512C132.291 23.512 131.502 23.384 130.67 23.128C129.859 22.8933 129.102 22.616 128.398 22.296L129.774 18.488C130.201 18.8933 130.723 19.2773 131.342 19.64C131.961 20.0027 132.579 20.3013 133.198 20.536C133.817 20.7707 134.339 20.888 134.766 20.888C135.342 20.888 135.865 20.6107 136.334 20.056C136.825 19.5013 137.209 18.712 137.486 17.688C137.785 16.664 137.934 15.4587 137.934 14.072C137.934 13.048 137.87 12.2373 137.742 11.64C137.635 11.0213 137.422 10.712 137.102 10.712C136.91 10.712 136.494 10.9893 135.854 11.544C135.214 12.0987 134.425 13.0907 133.486 14.52C132.569 15.928 131.566 17.9013 130.478 20.44L129.486 17.688C130.702 14.9787 131.833 12.8773 132.878 11.384C133.923 9.89067 134.915 8.84533 135.854 8.248C136.793 7.62933 137.699 7.32 138.574 7.32C139.897 7.32 140.835 7.82133 141.39 8.824C141.945 9.82667 142.222 11.1707 142.222 12.856C142.222 14.9253 141.817 16.76 141.006 18.36C140.217 19.96 139.129 21.2187 137.742 22.136C136.377 23.0533 134.809 23.512 133.038 23.512ZM127.47 30.008C127.129 30.008 126.851 29.8587 126.638 29.56C126.425 29.2827 126.265 28.9413 126.158 28.536C126.073 28.152 126.03 27.8 126.03 27.48C126.03 27.0533 126.051 26.5307 126.094 25.912C126.158 25.3147 126.233 24.5893 126.318 23.736L128.174 7.288H130.638C130.979 7.288 131.267 7.416 131.502 7.672C131.758 7.928 131.95 8.23733 132.078 8.6C132.206 8.94133 132.27 9.272 132.27 9.592C132.27 9.99733 132.121 10.6053 131.822 11.416C131.523 12.2267 131.161 13.24 130.734 14.456L129.87 16.888H131.182L130.702 21.208L130.446 21.624L130.254 30.008H127.47ZM145.544 23.512C145.16 23.512 144.862 23.2453 144.648 22.712C144.435 22.1787 144.328 21.6027 144.328 20.984C144.328 20.3867 144.35 19.8533 144.392 19.384C144.435 18.8933 144.499 18.2853 144.584 17.56L145.736 7.288H148.648C149.16 7.288 149.502 7.52267 149.672 7.992C149.864 8.46133 149.96 8.99467 149.96 9.592C149.96 9.89067 149.939 10.2107 149.896 10.552C149.854 10.872 149.79 11.3733 149.704 12.056L149.096 17.272C148.99 18.3387 148.883 19.2453 148.776 19.992C148.67 20.7387 148.574 21.3893 148.488 21.944C148.424 22.4987 148.36 23.0213 148.296 23.512H145.544ZM148.36 5.976C147.678 5.976 147.08 5.74133 146.568 5.272C146.056 4.78133 145.8 4.152 145.8 3.384C145.8 2.488 146.088 1.784 146.664 1.272C147.262 0.76 147.955 0.504 148.744 0.504C149.448 0.504 150.046 0.717333 150.536 1.144C151.027 1.57067 151.272 2.2 151.272 3.032C151.272 3.88533 150.984 4.58933 150.408 5.144C149.832 5.69867 149.15 5.976 148.36 5.976ZM163.328 23.32C163.008 23.32 162.773 23.1813 162.624 22.904C162.475 22.6267 162.368 22.3173 162.304 21.976C162.261 21.6347 162.24 21.3787 162.24 21.208C162.24 20.9093 162.261 20.5573 162.304 20.152C162.347 19.7253 162.389 19.288 162.432 18.84C162.496 18.3707 162.56 17.944 162.624 17.56L163.168 14.232C163.232 13.8053 163.307 13.3787 163.392 12.952C163.477 12.5253 163.52 12.1413 163.52 11.8C163.52 11.544 163.467 11.352 163.36 11.224C163.253 11.096 163.115 11.032 162.944 11.032C162.667 11.032 162.229 11.2987 161.632 11.832C161.056 12.344 160.437 13.0907 159.776 14.072C159.136 15.032 158.549 16.184 158.016 17.528C157.483 18.872 157.131 20.376 156.96 22.04L155.84 17.176C156.48 15.32 157.205 13.7627 158.016 12.504C158.827 11.2453 159.659 10.2427 160.512 9.496C161.365 8.728 162.187 8.17333 162.976 7.832C163.765 7.49067 164.469 7.32 165.088 7.32C165.813 7.32 166.389 7.45867 166.816 7.736C167.264 7.992 167.584 8.344 167.776 8.792C167.968 9.21867 168.064 9.67733 168.064 10.168C168.064 10.7227 168.021 11.2453 167.936 11.736C167.872 12.2267 167.797 12.7493 167.712 13.304L166.176 23.32H163.328ZM153.376 23.448C153.099 23.448 152.875 23.3947 152.704 23.288C152.555 23.2027 152.469 22.9573 152.448 22.552C152.427 22.1467 152.469 21.496 152.576 20.6L154.08 7.288H156.928C157.419 7.288 157.781 7.52267 158.016 7.992C158.272 8.46133 158.4 8.99467 158.4 9.592C158.4 9.86933 158.293 10.3067 158.08 10.904C157.867 11.48 157.632 12.0987 157.376 12.76C157.12 13.4 156.907 13.9653 156.736 14.456L155.904 17.08L157.472 16.888L156.96 22.04C156.939 22.296 156.768 22.52 156.448 22.712C156.128 22.904 155.744 23.0533 155.296 23.16C154.869 23.2667 154.475 23.3413 154.112 23.384C153.749 23.4267 153.504 23.448 153.376 23.448ZM175.886 30.072C174.841 30.072 173.87 29.912 172.974 29.592C172.078 29.272 171.363 28.7707 170.83 28.088C170.297 27.4053 170.03 26.488 170.03 25.336C170.03 24.76 170.169 24.472 170.446 24.472C170.595 24.472 170.777 24.5253 170.99 24.632C171.225 24.76 171.47 24.8987 171.726 25.048C172.131 25.2827 172.665 25.56 173.326 25.88C173.987 26.2213 174.67 26.52 175.374 26.776C176.099 27.032 176.739 27.16 177.294 27.16C177.571 27.16 177.827 27.1067 178.062 27C178.297 26.8933 178.521 26.6587 178.734 26.296C178.969 25.9333 179.203 25.3787 179.438 24.632C179.673 23.9067 179.929 22.9147 180.206 21.656L182.03 12.984L181.454 12.216L181.486 8.12C182.851 7.94933 183.886 7.77867 184.59 7.608C185.294 7.43733 185.774 7.352 186.03 7.352C186.457 7.352 186.67 7.544 186.67 7.928C186.67 8.07733 186.531 8.52533 186.254 9.272C185.998 10.0187 185.721 10.9893 185.422 12.184C185.123 13.3787 184.942 14.744 184.878 16.28L184.654 22.04C184.59 23.5333 184.281 24.792 183.726 25.816C183.171 26.84 182.457 27.6613 181.582 28.28C180.729 28.92 179.801 29.3787 178.798 29.656C177.795 29.9333 176.825 30.072 175.886 30.072ZM173.838 23.448C172.643 23.448 171.737 22.9573 171.118 21.976C170.499 20.9733 170.19 19.6187 170.19 17.912C170.19 16.376 170.435 14.968 170.926 13.688C171.417 12.3867 172.078 11.2667 172.91 10.328C173.742 9.368 174.691 8.632 175.758 8.12C176.825 7.58667 177.945 7.32 179.118 7.32C180.035 7.32 180.867 7.448 181.614 7.704C182.382 7.93867 183.033 8.184 183.566 8.44L182.638 12.408C182.062 12.024 181.433 11.64 180.75 11.256C180.067 10.872 179.406 10.5627 178.766 10.328C178.147 10.072 177.635 9.944 177.23 9.944C176.761 9.944 176.313 10.2747 175.886 10.936C175.481 11.576 175.161 12.408 174.926 13.432C174.691 14.456 174.574 15.5333 174.574 16.664C174.574 17.7093 174.659 18.5307 174.83 19.128C175.022 19.7253 175.278 20.024 175.598 20.024C175.854 20.024 176.281 19.7467 176.878 19.192C177.475 18.616 178.211 17.6347 179.086 16.248C179.961 14.8613 180.921 12.9093 181.966 10.392L182.926 13.688C181.774 16.248 180.675 18.2427 179.63 19.672C178.606 21.08 177.614 22.0613 176.654 22.616C175.694 23.1707 174.755 23.448 173.838 23.448Z" fill="white"/>
</svg>
