<svg width="58" height="58" viewBox="0 0 58 58" fill="none" xmlns="http://www.w3.org/2000/svg">
<path d="M29 49.88C21.75 49.88 15.341 46.168 11.6 40.6C11.687 34.8 23.2 31.61 29 31.61C34.8 31.61 46.313 34.8 46.4 40.6C42.659 46.168 36.25 49.88 29 49.88ZM29 8.7C31.3074 8.7 33.5203 9.61661 35.1518 11.2482C36.7834 12.8797 37.7 15.0926 37.7 17.4C37.7 19.7074 36.7834 21.9203 35.1518 23.5518C33.5203 25.1834 31.3074 26.1 29 26.1C26.6926 26.1 24.4797 25.1834 22.8482 23.5518C21.2166 21.9203 20.3 19.7074 20.3 17.4C20.3 15.0926 21.2166 12.8797 22.8482 11.2482C24.4797 9.61661 26.6926 8.7 29 8.7ZM29 0C25.1917 0 21.4206 0.750107 17.9022 2.20749C14.3837 3.66488 11.1868 5.801 8.4939 8.4939C3.05535 13.9325 0 21.3087 0 29C0 36.6913 3.05535 44.0675 8.4939 49.5061C11.1868 52.199 14.3837 54.3351 17.9022 55.7925C21.4206 57.2499 25.1917 58 29 58C36.6913 58 44.0675 54.9447 49.5061 49.5061C54.9447 44.0675 58 36.6913 58 29C58 12.963 44.95 0 29 0Z" fill="#D9D9D9"/>
</svg>