<svg width="22" height="20" viewBox="0 0 22 20" fill="none" xmlns="http://www.w3.org/2000/svg">
<path d="M11 0C4.95 0 0 3.97778 0 8.88889C0.055 11.2778 1.166 13.5222 3.025 15C3.025 15.6667 2.563 17.4111 0 20C2.607 19.8778 5.104 18.8889 7.117 17.2222C8.371 17.5889 9.691 17.7778 11 17.7778C17.05 17.7778 22 13.8 22 8.88889C22 3.97778 17.05 0 11 0ZM11 15.5556C6.138 15.5556 2.2 12.5667 2.2 8.88889C2.2 5.21111 6.138 2.22222 11 2.22222C15.862 2.22222 19.8 5.21111 19.8 8.88889C19.8 12.5667 15.862 15.5556 11 15.5556ZM16.5 10V7.77778H14.3V10H16.5ZM12.1 10V7.77778H9.9V10H12.1ZM7.7 10V7.77778H5.5V10H7.7Z" fill="#A9A9A9"/>
</svg>
