<svg width="20" height="20" viewBox="0 0 20 20" fill="none" xmlns="http://www.w3.org/2000/svg">
<path d="M17.7778 17.7778V2.22222H2.22222V17.7778H17.7778ZM17.7778 0C18.3671 0 18.9324 0.234126 19.3491 0.650874C19.7659 1.06762 20 1.63285 20 2.22222V17.7778C20 19.0111 19 20 17.7778 20H2.22222C1.63285 20 1.06762 19.7659 0.650874 19.3491C0.234126 18.9324 0 18.3671 0 17.7778V2.22222C0 1.63285 0.234126 1.06762 0.650874 0.650874C1.06762 0.234126 1.63285 0 2.22222 0H17.7778ZM15.2222 7.05556L14.1111 8.16667L11.8333 5.88889L12.9444 4.77778C13.1778 4.53333 13.5667 4.53333 13.8 4.77778L15.2222 6.2C15.4667 6.43333 15.4667 6.82222 15.2222 7.05556ZM4.44444 13.2667L11.1778 6.53333L13.4667 8.82222L6.73333 15.5556H4.44444V13.2667Z" fill="#94DD4A"/>
</svg>
