<svg width="17" height="15" viewBox="0 0 17 15" fill="none" xmlns="http://www.w3.org/2000/svg">
<path d="M8.4998 0.5C4.2648 0.5 0.799805 3.28444 0.799805 6.72222C0.838305 8.39444 1.616 9.96556 2.9173 11C2.9173 11.4667 2.5939 12.6878 0.799805 14.5C2.6247 14.4144 4.3726 13.7222 5.7817 12.5556C6.6595 12.8122 7.5835 12.9444 8.4998 12.9444C12.7348 12.9444 16.1998 10.16 16.1998 6.72222C16.1998 3.28444 12.7348 0.5 8.4998 0.5ZM8.4998 11.3889C5.0964 11.3889 2.3398 9.29667 2.3398 6.72222C2.3398 4.14778 5.0964 2.05556 8.4998 2.05556C11.9032 2.05556 14.6598 4.14778 14.6598 6.72222C14.6598 9.29667 11.9032 11.3889 8.4998 11.3889ZM12.3498 7.5V5.94444H10.8098V7.5H12.3498ZM9.2698 7.5V5.94444H7.7298V7.5H9.2698ZM6.1898 7.5V5.94444H4.6498V7.5H6.1898Z" fill="#96E348"/>
</svg>
