<svg width="18" height="19" viewBox="0 0 18 19" fill="none" xmlns="http://www.w3.org/2000/svg">
<path d="M9 16.34C7.27177 16.34 5.69753 15.6226 4.53422 14.4633C3.8434 13.7748 3.54007 12.6702 4.24506 11.9963C5.36285 10.9278 7.66735 10.355 9 10.355C10.3327 10.355 12.6371 10.9278 13.7549 11.9963C14.4599 12.6702 14.1566 13.7748 13.4658 14.4633C12.3025 15.6226 10.7282 16.34 9 16.34ZM9 2.85C9.71608 2.85 10.4028 3.15027 10.9092 3.68475C11.4155 4.21922 11.7 4.94413 11.7 5.7C11.7 6.45587 11.4155 7.18078 10.9092 7.71525C10.4028 8.24973 9.71608 8.55 9 8.55C8.28392 8.55 7.59716 8.24973 7.09081 7.71525C6.58446 7.18078 6.3 6.45587 6.3 5.7C6.3 4.94413 6.58446 4.21922 7.09081 3.68475C7.59716 3.15027 8.28392 2.85 9 2.85ZM9 0C7.8181 0 6.64778 0.245725 5.55585 0.723144C4.46392 1.20056 3.47177 1.90033 2.63604 2.78249C0.948212 4.56408 0 6.98044 0 9.5C0 12.0196 0.948212 14.4359 2.63604 16.2175C3.47177 17.0997 4.46392 17.7994 5.55585 18.2769C6.64778 18.7543 7.8181 19 9 19C11.3869 19 13.6761 17.9991 15.364 16.2175C17.0518 14.4359 18 12.0196 18 9.5C18 4.2465 13.95 0 9 0Z" fill="#94DD4A"/>
</svg>
