<svg width="22" height="20" viewBox="0 0 22 20" fill="none" xmlns="http://www.w3.org/2000/svg">
<path d="M8 10C8.53 10.14 8.85 10.69 8.71 11.22L7.41 16.05C7.27 16.59 6.72 16.9 6.19 16.76C5.65 16.62 5.34 16.07 5.5 15.54L6.78 10.71C6.92 10.17 7.47 9.86 8 10ZM12 10C12.53 10.14 12.85 10.69 12.71 11.22L10.64 18.95C10.5 19.5 9.95 19.8 9.41 19.66C8.88 19.5 8.56 18.97 8.7 18.43L10.78 10.71C10.92 10.17 11.47 9.86 12 10ZM16 10C16.53 10.14 16.85 10.69 16.71 11.22L15.41 16.05C15.27 16.59 14.72 16.9 14.19 16.76C13.65 16.62 13.34 16.07 13.5 15.54L14.78 10.71C14.92 10.17 15.47 9.86 16 10ZM16 8V7C16 5.67392 15.4732 4.40215 14.5355 3.46447C13.5979 2.52678 12.3261 2 11 2C8.5 2 6.45 3.82 6.06 6.19C5.73 6.07 5.37 6 5 6C4.20435 6 3.44129 6.31607 2.87868 6.87868C2.31607 7.44129 2 8.20435 2 9C2 10.11 2.6 11.08 3.5 11.6V11.59C4 11.87 4.14 12.5 3.87 12.96C3.59 13.43 3 13.6 2.5 13.32V13.33C1 12.47 0 10.85 0 9C0 7.67392 0.526784 6.40215 1.46447 5.46447C2.40215 4.52678 3.67392 4 5 4C6 1.65 8.3 0 11 0C14.43 0 17.24 2.66 17.5 6.03L18 6C19.0609 6 20.0783 6.42143 20.8284 7.17157C21.5786 7.92172 22 8.93913 22 10C22 11.5 21.2 12.77 20 13.46C19.5 13.73 18.91 13.57 18.63 13.09C18.36 12.61 18.5 12 19 11.72V11.73C19.6 11.39 20 10.74 20 10C20 9.46957 19.7893 8.96086 19.4142 8.58579C19.0391 8.21071 18.5304 8 18 8H16Z" fill="#A9A9A9"/>
</svg>
